<svg xmlns="http://www.w3.org/2000/svg" viewBox="0 0 32 32">
  <rect width="32" height="32" rx="6" fill="#F4F0E9"/>
  <path d="M4 18c4 0.1 7 3 12 2.5 2-0.2 3.5-1 5.5-1.4 1.3-0.3 1.8 1.1 0.5 1.8-1.8 0.9-5.5 1.8-7.5 1.9-4.8 0.3-8.3-2.1-12.9-2.5-0.7-0.1-2.4 0.1-2.9-0.2-0.4-0.3-0.5-1.1-0.1-1.4 0.7-0.6 4.9-0.9 5.9-0.8z" fill="#95b467"/>
  <path d="M18 11c2.7 0.1 5.5 1.4 8.2 1.8 1.1 0.2 2.2 0.3 3.3 0.3 0.6 0 1.9-0.4 1.7 0.7-0.3 1.2-3.5 2-4.6 2.1-5.4 0.3-7.9-3.6-14.2-2.2-1.3 0.3-3.1 1.2-4.2 1.4-0.8 0.1-1.4-0.7-0.9-1.3 0.2-0.3 3.4-1.7 3.9-1.9 2.1-0.7 4.6-1 6.8-0.9z" fill="#4a6e90"/>
</svg>
