<?xml version="1.0" encoding="UTF-8"?>
<svg id="Ebene_1" xmlns="http://www.w3.org/2000/svg" version="1.1" viewBox="0 0 595.276 595.276">
  <!-- Generator: Adobe Illustrator 29.8.1, SVG Export Plug-In . SVG Version: 2.1.1 Build 2)  -->
  <defs>
    <style>
      .st0 {
        fill: none;
      }

      .st1 {
        fill: #4a6e90;
      }

      .st2 {
        fill: #95b467;
      }

      .st3 {
        fill: #343434;
      }
    </style>
  </defs>
  <g>
    <rect class="st0" x="-416.418" y="9.713" width="1428.112" height="811.545"/>
    <path class="st3" d="M38.939,183.036h-19.227V18.459h19.227v164.577Z"/>
    <path class="st3" d="M106.487,183.036V56.447h18.678v23.369h1.208c5.346-16.907,18.055-25.362,38.125-25.362,13.11,0,23.529,3.563,31.258,10.688,7.727,7.126,11.591,17.443,11.591,30.955v86.94h-18.788v-80.959c0-10.115-2.472-17.831-7.417-23.147-4.944-5.316-11.921-7.974-20.93-7.974-11.426,0-20.125,3.859-26.094,11.574-5.971,7.716-8.955,17.554-8.955,29.515v70.992h-18.678Z"/>
    <path class="st3" d="M279.401,56.447v-31.786h18.787v31.786h28.567v16.17h-28.567v76.086c0,5.244.641,9.248,1.923,12.017,1.281,2.769,3.368,4.689,6.263,5.759,2.893,1.071,7.087,1.605,12.58,1.605,3.368,0,6.593-.147,9.669-.443v15.616c-2.931.59-7.765.886-14.503.886-7.252,0-13.167-.684-17.745-2.049-4.578-1.365-8.095-3.655-10.548-6.867-2.454-3.211-4.139-6.939-5.054-11.186-.917-4.245-1.373-9.653-1.373-16.225v-75.2h-19.228v-16.17h19.228Z"/>
    <path class="st3" d="M485.056,56.447v126.589h-18.678v-20.932h-1.209c-2.125,6.129-6.355,11.501-12.689,16.114-6.337,4.615-14.522,6.922-24.557,6.922-13.403,0-23.97-3.229-31.697-9.691-7.729-6.46-11.591-16.594-11.591-30.401V56.447h19.007v83.728c0,19.049,9.521,28.574,28.566,28.574,9.669,0,17.78-3.082,24.336-9.248,6.555-6.164,9.834-13.457,9.834-21.874V56.447h18.678Z"/>
    <path class="st3" d="M549.857,17.02c0-4.134,1.373-7.548,4.12-10.244,2.746-2.694,6.098-4.042,10.053-4.042,4.102,0,7.488,1.348,10.163,4.042,2.673,2.696,4.01,6.11,4.01,10.244,0,2.807-.604,5.28-1.812,7.42-1.208,2.143-2.911,3.785-5.108,4.929-2.198,1.146-4.615,1.716-7.252,1.716-3.955,0-7.307-1.329-10.053-3.987-2.747-2.658-4.12-6.017-4.12-10.079ZM554.691,183.036V56.447h18.788v126.589h-18.788Z"/>
  </g>
  <path class="st2" d="M121.502,328.521c70.035,1.971,114.099,52.008,193.545,44.402,32.933-3.153,58.896-17.722,88.076-23.588,20.987-4.219,28.537,19.238,7.23,30.256-29.799,15.408-90.585,29.702-124.132,31.447-79.12,4.117-137.218-34.284-212.512-41.797-11.461-1.144-39.612,1.011-47.352-3.902-7.388-4.69-8.133-17.522-2.215-22.824,11.286-10.112,80.744-14.461,97.36-13.994Z"/>
  <path class="st1" d="M355.401,230.973c43.758,1.97,90.288,23.726,135.693,30.369,17.376,2.542,36.541,4.182,55.154,4.707,9.324.263,31.674-7.18,27.309,11.35-4.725,20.058-58.045,33.227-75.676,34.147-89.398,4.663-130.682-59.076-234.868-37.112-20.831,4.391-51.281,20.384-68.528,22.751-12.917,1.773-23.498-10.755-15.644-20.718,3.481-4.416,55.854-27.908,64.477-30.983,33.862-12.078,76.19-16.126,112.084-14.51Z"/>
  <g>
    <path class="st3" d="M17.632,541.748h19.228c.879,8.787,4.906,15.986,12.085,21.597,7.178,5.612,16.92,8.417,29.226,8.417,11.572,0,20.875-2.694,27.907-8.085,7.032-5.389,10.547-12.698,10.547-21.929,0-6.866-2.18-12.46-6.537-16.778-4.359-4.319-11.189-7.697-20.491-10.134l-29.225-7.864c-10.987-2.879-20.016-7.788-27.083-14.729-7.07-6.939-10.603-16.242-10.603-27.909,0-9.819,2.692-18.385,8.075-25.694,5.384-7.31,12.232-12.682,20.546-16.114,8.312-3.434,17.34-5.15,27.083-5.15,7.032,0,13.715.924,20.051,2.769,6.334,1.847,12.212,4.561,17.634,8.141,5.42,3.582,9.76,8.455,13.02,14.619,3.258,6.166,5.035,13.162,5.329,20.987h-19.228c-.879-8.639-4.487-15.633-10.822-20.987-6.336-5.353-15.145-8.029-26.423-8.029-10.622,0-19.265,2.455-25.93,7.365-6.666,4.911-9.998,11.833-9.998,20.766,0,12.7,7.727,21.081,23.183,25.141l28.566,7.753c13.696,3.84,24.171,9.191,31.422,16.059,7.251,6.866,10.877,16.354,10.877,28.463,0,15.654-5.677,27.707-17.03,36.16-11.354,8.455-25.819,12.682-43.399,12.682-10.036,0-18.935-1.459-26.698-4.375-7.765-2.916-13.789-6.756-18.074-11.519-4.285-4.762-7.526-9.801-9.723-15.117-2.198-5.316-3.37-10.815-3.516-16.502Z"/>
    <path class="st3" d="M231.405,587.932c-16.408,0-29.263-4.965-38.564-14.896-9.303-9.93-13.954-23.35-13.954-40.258v-20.489c0-16.612,4.76-29.939,14.283-39.981,9.521-10.04,21.79-15.062,36.806-15.062s27.284,5.021,36.807,15.062c9.521,10.042,14.283,23.369,14.283,39.981v15.505h-83.281v6.424c0,10.707,2.948,19.53,8.845,26.47,5.895,6.941,14.154,10.411,24.775,10.411,7.324,0,13.459-1.495,18.403-4.486,4.944-2.99,8.111-6.589,9.504-10.798h19.887c-.587,3.544-1.978,7.088-4.175,10.632-2.198,3.544-5.164,6.978-8.899,10.3-3.736,3.323-8.625,6.02-14.668,8.085-6.042,2.066-12.728,3.102-20.051,3.102ZM197.785,513.174h64.274v-2.215c0-7.382-1.337-13.88-4.01-19.492-2.675-5.61-6.446-9.912-11.316-12.902-4.872-2.99-10.493-4.485-16.865-4.485-9.596,0-17.342,3.342-23.237,10.022-5.897,6.684-8.845,15.636-8.845,26.857v2.215Z"/>
    <path class="st3" d="M330.474,585.827v-126.589h18.678v23.368h1.209c5.346-16.906,18.055-25.361,38.125-25.361,13.11,0,23.529,3.562,31.258,10.688,7.727,7.126,11.592,17.443,11.592,30.955v86.939h-18.788v-80.959c0-10.115-2.473-17.831-7.416-23.147-4.944-5.316-11.921-7.974-20.931-7.974-11.427,0-20.125,3.858-26.094,11.573-5.971,7.716-8.955,17.554-8.955,29.516v70.991h-18.678Z"/>
    <path class="st3" d="M480.961,495.232c0-12.477,4.376-21.929,13.13-28.353,8.751-6.424,19.611-9.635,32.576-9.635,6.519,0,12.525.886,18.019,2.657,5.493,1.772,10.144,4.191,13.953,7.255,3.808,3.064,6.738,6.738,8.79,11.02,2.05,4.283,3.076,8.971,3.076,14.065h-17.579c-.294-3.248-1.393-6.294-3.296-9.137-1.906-2.842-4.944-5.261-9.119-7.255-4.176-1.993-9.084-2.99-14.723-2.99-5.202,0-9.778.775-13.734,2.326-3.955,1.551-7.086,3.896-9.394,7.032-2.308,3.14-3.461,6.775-3.461,10.909,0,2.954.604,5.502,1.812,7.643,1.209,2.142,2.582,3.82,4.12,5.039,1.539,1.218,3.791,2.381,6.758,3.488,2.966,1.107,5.4,1.847,7.306,2.215,1.904.37,4.687.925,8.351,1.661.292,0,.566.038.824.111.256.074.53.11.823.11s.586.111.879.332c4.396.739,8.203,1.495,11.427,2.271,3.223.775,6.628,1.772,10.218,2.99,3.588,1.219,6.593,2.678,9.01,4.375,2.417,1.699,4.705,3.729,6.867,6.092,2.159,2.363,3.735,5.169,4.724,8.417.989,3.25,1.483,6.866,1.483,10.854,0,12.257-4.505,21.855-13.514,28.795-9.01,6.941-20.913,10.411-35.708,10.411-13.697,0-24.775-3.046-33.235-9.138-8.46-6.091-12.69-14.674-12.69-25.749h18.458c1.83,12.625,11.279,18.938,28.347,18.938,6.738,0,12.396-.959,16.975-2.88,4.577-1.919,7.856-4.375,9.834-7.365s2.967-6.551,2.967-10.688c0-2.805-.568-5.277-1.703-7.42-1.137-2.141-2.51-3.857-4.12-5.15-1.612-1.29-4.011-2.527-7.197-3.71-3.186-1.18-5.971-2.029-8.35-2.547-2.381-.516-5.769-1.255-10.163-2.215-5.787-1.181-10.365-2.196-13.733-3.046-3.37-.848-7.18-2.196-11.427-4.043-4.249-1.845-7.49-3.894-9.724-6.146-2.235-2.251-4.103-5.167-5.604-8.749-1.502-3.58-2.252-7.845-2.252-12.792Z"/>
  </g>
</svg>